<svg width="20" height="20" viewBox="0 0 20 20" fill="none" xmlns="http://www.w3.org/2000/svg">
<g clip-path="url(#clip0_114_128)">
<path d="M17.9165 3.33334H16.111V4.44445H17.7776V16.6667H2.22209V4.44445H3.88876V3.33334H2.0832C1.95334 3.33551 1.82517 3.36324 1.70602 3.41495C1.58687 3.46666 1.47908 3.54134 1.38879 3.63472C1.29851 3.7281 1.22751 3.83835 1.17984 3.95917C1.13217 4.07999 1.10878 4.20902 1.11098 4.33889V16.7722C1.10878 16.9021 1.13217 17.0311 1.17984 17.1519C1.22751 17.2728 1.29851 17.383 1.38879 17.4764C1.47908 17.5698 1.58687 17.6445 1.70602 17.6962C1.82517 17.7479 1.95334 17.7756 2.0832 17.7778H17.9165C18.0464 17.7756 18.1746 17.7479 18.2937 17.6962C18.4129 17.6445 18.5207 17.5698 18.6109 17.4764C18.7012 17.383 18.7722 17.2728 18.8199 17.1519C18.8676 17.0311 18.891 16.9021 18.8888 16.7722V4.33889C18.891 4.20902 18.8676 4.07999 18.8199 3.95917C18.7722 3.83835 18.7012 3.7281 18.6109 3.63472C18.5207 3.54134 18.4129 3.46666 18.2937 3.41495C18.1746 3.36324 18.0464 3.33551 17.9165 3.33334Z" fill="black"/>
<path d="M4.44434 7.77778H5.55545V8.88889H4.44434V7.77778Z" fill="black"/>
<path d="M7.77783 7.77778H8.88894V8.88889H7.77783V7.77778Z" fill="black"/>
<path d="M11.1113 7.77778H12.2224V8.88889H11.1113V7.77778Z" fill="black"/>
<path d="M14.4443 7.77778H15.5554V8.88889H14.4443V7.77778Z" fill="black"/>
<path d="M4.44434 10.5556H5.55545V11.6667H4.44434V10.5556Z" fill="black"/>
<path d="M7.77783 10.5556H8.88894V11.6667H7.77783V10.5556Z" fill="black"/>
<path d="M11.1113 10.5556H12.2224V11.6667H11.1113V10.5556Z" fill="black"/>
<path d="M14.4443 10.5556H15.5554V11.6667H14.4443V10.5556Z" fill="black"/>
<path d="M4.44434 13.3333H5.55545V14.4444H4.44434V13.3333Z" fill="black"/>
<path d="M7.77783 13.3333H8.88894V14.4444H7.77783V13.3333Z" fill="black"/>
<path d="M11.1113 13.3333H12.2224V14.4444H11.1113V13.3333Z" fill="black"/>
<path d="M14.4443 13.3333H15.5554V14.4444H14.4443V13.3333Z" fill="black"/>
<path d="M5.55556 5.55556C5.7029 5.55556 5.84421 5.49703 5.94839 5.39284C6.05258 5.28865 6.11111 5.14735 6.11111 5V1.66667C6.11111 1.51933 6.05258 1.37802 5.94839 1.27383C5.84421 1.16965 5.7029 1.11111 5.55556 1.11111C5.40821 1.11111 5.26691 1.16965 5.16272 1.27383C5.05853 1.37802 5 1.51933 5 1.66667V5C5 5.14735 5.05853 5.28865 5.16272 5.39284C5.26691 5.49703 5.40821 5.55556 5.55556 5.55556Z" fill="black"/>
<path d="M14.4442 5.55556C14.5916 5.55556 14.7329 5.49703 14.8371 5.39284C14.9413 5.28865 14.9998 5.14735 14.9998 5V1.66667C14.9998 1.51933 14.9413 1.37802 14.8371 1.27383C14.7329 1.16965 14.5916 1.11111 14.4442 1.11111C14.2969 1.11111 14.1556 1.16965 14.0514 1.27383C13.9472 1.37802 13.8887 1.51933 13.8887 1.66667V5C13.8887 5.14735 13.9472 5.28865 14.0514 5.39284C14.1556 5.49703 14.2969 5.55556 14.4442 5.55556Z" fill="black"/>
<path d="M7.22217 3.33334H12.7777V4.44445H7.22217V3.33334Z" fill="black"/>
</g>
<defs>
<clipPath id="clip0_114_128">
<rect width="20" height="20" fill="white"/>
</clipPath>
</defs>
</svg>
